# xmcd
#
# Track frame offsets: 
#        150
#        18756
#        35546
#        52622
#        68779
#        71300
#        102871
#        118728
#        131327
#        150780
#        166378
#        184227
#        201443
#        218828
#        235071
#        252519
#        271440
#
# Disc length: 3853 seconds
#
# Revision: 0
# Processed by: cddbd v1.5PL3 Copyright (c) Steve Scherf et al.
# Submitted via: ExactAudioCopy v0.95a3
#
DISCID=e20f0b11
DTITLE=Somerset Slim - Applause Optional
DYEAR=2002
DGENRE=Blues/Rock
TTITLE0=Ain't No Saint
TTITLE1=Let the Good Times Roll
TTITLE2=Your Cash Ain't Nothing But Trash
TTITLE3=Life in the Jungle
TTITLE4={Studio Nonsense}
TTITLE5=Red House
TTITLE6=Continental Op.
TTITLE7=She's into Something
TTITLE8=Wake-up Call
TTITLE9=Messing with the Kid
TTITLE10=When I Leave
TTITLE11=Jesus Just Left Chicago
TTITLE12=Help the Poor
TTITLE13=Talk to Your Daughter
TTITLE14=Key to the Highway
TTITLE15=Crossroads
TTITLE16=Key to the Highway (live)
EXTD=
EXTT0=
EXTT1=
EXTT2=
EXTT3=
EXTT4=
EXTT5=
EXTT6=
EXTT7=
EXTT8=
EXTT9=
EXTT10=
EXTT11=
EXTT12=
EXTT13=
EXTT14=
EXTT15=
EXTT16=
PLAYORDER=
